<svg fill="none" version="1.1" viewBox="0 0 60 60" xmlns="http://www.w3.org/2000/svg">
 <g fill="#2D2D2D">
  <path d="m54.571 46.285-8.448-8.448 4.1432-4.1432c0.359-0.359 0.5066-0.8782 0.3899-1.3724-0.1167-0.4941-0.4808-0.8925-0.9624-1.0531l-24.859-8.2864c-0.5263-0.1755-1.1068-0.0385-1.499 0.3539-0.3924 0.3924-0.5294 0.9726-0.354 1.499l8.2865 24.859c0.1606 0.4816 0.5591 0.8458 1.0531 0.9624 0.494 0.1169 1.0134-0.0308 1.3724-0.3899l4.1432-4.1431 8.4481 8.4479c0.286 0.2861 0.6609 0.4291 1.0357 0.4291s0.7498-0.1429 1.0358-0.4291l6.2148-6.2148c0.5721-0.5721 0.5721-1.4995-1e-4 -2.0716zm-7.2506 5.179-8.448-8.4479c-0.572-0.5721-1.4996-0.5721-2.0716 0l-3.503 3.503-6.6105-19.831 19.831 6.6105-3.5031 3.503c-0.5716 0.5715-0.572 1.4996 0 2.0716l8.4481 8.448-4.1433 4.1432z"/>
  <path d="m24.043 16.719c0.809 0 1.4648-0.6559 1.4648-1.4649v-8.7891c0-0.80898-0.6558-1.4648-1.4648-1.4648s-1.4649 0.65586-1.4649 1.4648v8.7891c0 0.809 0.6559 1.4649 1.4649 1.4649z"/>
  <path d="m12.649 10.578c-0.572-0.5721-1.4995-0.5721-2.0716 0-0.572 0.5721-0.572 1.4995 0 2.0716l6.2149 6.2148c0.5719 0.5721 1.4996 0.5721 2.0716 0s0.572-1.4995 0-2.0716l-6.2149-6.2148z"/>
  <path d="m16.792 29.222-6.2149 6.2149c-0.572 0.572-0.572 1.4995 0 2.0716 0.572 0.572 1.4996 0.572 2.0716 0l6.2149-6.2149c0.572-0.5721 0.572-1.4995 0-2.0716-0.5721-0.572-1.4997-0.572-2.0716 0z"/>
  <path d="m31.294 18.864 6.2148-6.2148c0.5721-0.5721 0.5721-1.4995 0-2.0716-0.572-0.5721-1.4995-0.5721-2.0716 0l-6.2148 6.2148c-0.5721 0.5721-0.5721 1.4995 0 2.0716 0.572 0.5721 1.4996 0.5721 2.0716 0z"/>
  <path d="m16.719 24.043c0-0.809-0.6559-1.4649-1.4649-1.4649h-8.7891c-0.80898 0-1.4648 0.6559-1.4648 1.4649s0.65586 1.4648 1.4648 1.4648h8.7891c0.809 0 1.4649-0.6558 1.4649-1.4648z"/>
 </g>
</svg>
