<svg fill="none" version="1.1" viewBox="0 0 60 60" xmlns="http://www.w3.org/2000/svg">
 <g fill="#2D2D2D">
  <path d="m47.869 17.662-11.25-11.25c-0.2626-0.26269-0.621-0.41203-0.9945-0.41203h-19.688c-2.3262 0-4.2187 1.8925-4.2187 4.2188v39.562c0 2.3263 1.8925 4.2188 4.2187 4.2188h28.125c2.3262 0 4.2187-1.8925 4.2187-4.2188v-31.125c0-0.3834-0.1609-0.7435-0.412-0.9945zm-10.838-6.8605 6.4488 6.4488h-5.0425c-0.7754 0-1.4063-0.6308-1.4063-1.4062v-5.0426zm7.0313 40.386h-28.125c-0.7754 0-1.4063-0.6308-1.4063-1.4063v-39.562c0-0.77546 0.6309-1.4063 1.4063-1.4063h18.281v7.0313c0 2.3262 1.8925 4.2187 4.2187 4.2187h7.0313v29.719c0 0.7755-0.6309 1.4063-1.4063 1.4063z"/>
  <path d="m38.438 25.875h-16.875c-0.7766 0-1.4063 0.6296-1.4063 1.4062 0 0.7767 0.6297 1.4063 1.4063 1.4063h16.875c0.7766 0 1.4063-0.6296 1.4063-1.4063 0-0.7766-0.6297-1.4062-1.4063-1.4062z"/>
  <path d="m38.438 31.5h-16.875c-0.7766 0-1.4063 0.6296-1.4063 1.4062 0 0.7767 0.6297 1.4063 1.4063 1.4063h16.875c0.7766 0 1.4063-0.6296 1.4063-1.4063 0-0.7766-0.6297-1.4062-1.4063-1.4062z"/>
  <path d="m38.438 37.125h-16.875c-0.7766 0-1.4063 0.6296-1.4063 1.4062 0 0.7767 0.6297 1.4063 1.4063 1.4063h16.875c0.7766 0 1.4063-0.6296 1.4063-1.4063 0-0.7766-0.6297-1.4062-1.4063-1.4062z"/>
  <path d="m32.812 42.75h-11.25c-0.7766 0-1.4063 0.6296-1.4063 1.4062 0 0.7767 0.6297 1.4063 1.4063 1.4063h11.25c0.7766 0 1.4063-0.6296 1.4063-1.4063 0-0.7766-0.6297-1.4062-1.4063-1.4062z"/>
 </g>
</svg>
