<svg fill="none" version="1.1" viewBox="0 0 60 60" xmlns="http://www.w3.org/2000/svg">
 <g fill="#2D2D2D">
  <path d="m24.227 26.234c0 0.9709-0.7873 1.7578-1.7578 1.7578-0.9709 0-1.7578-0.7869-1.7578-1.7578s0.7869-1.7578 1.7578-1.7578c0.9705 0 1.7578 0.7869 1.7578 1.7578z"/>
  <path d="m48.188 14.525h-4.4452v-2.7134c0-5.1981-4.2055-9.4121-9.4121-9.4121h-22.518c-5.1982 0-9.4121 4.2051-9.4121 9.4121v30.313c0 1.3519 1.5852 2.1314 2.6524 1.2424l9.9436-8.2864h1.2617v4.4456c0 5.1982 4.2051 9.4121 9.4121 9.4121h19.335l9.9431 8.286c0.2965 0.2472 0.6642 0.3748 1.0356 0.3748 0.8891 0 1.6168-0.7214 1.6168-1.6172v-32.046c0-5.1981-4.2051-9.4117-9.4121-9.4117zm-33.778 17.322c-0.3781 0-0.7445 0.1327-1.0351 0.3749l-7.7406 6.4506v-26.86c0-3.4121 2.7602-6.1777 6.1777-6.1777h22.518c3.4117 0 6.1778 2.7602 6.1778 6.1777v13.858c0 3.4062-2.7716 6.1773-6.1778 6.1773h-19.92zm39.956 20.683-7.7406-6.4507c-0.2906-0.2421-0.657-0.3748-1.0351-0.3748h-19.92c-1.65 0-3.2015-0.6426-4.3681-1.8096-1.167-1.1666-1.8096-2.7181-1.8096-4.3681v-4.4456h14.838c2.0232 0 3.8993-0.6418 5.4357-1.7322h7.5557c0.8932 0 1.6172-0.7239 1.6172-1.6171 0-0.8929-0.724-1.6172-1.6172-1.6172h-4.697c0.6005-1.1161 0.9825-2.3668 1.0878-3.6943h3.6092c0.8932 0 1.6172-0.7239 1.6172-1.6172 0-0.8932-0.724-1.6172-1.6172-1.6172h-3.5793v-5.4264h4.4456c1.6504 0 3.2015 0.6423 4.3685 1.8092 1.1666 1.1666 1.8092 2.7181 1.8092 4.3681v28.593z"/>
  <path d="m19.737 14.159c0-0.7017 0.2562-1.3609 0.7211-1.8573 0.465-0.496 1.0833-0.7693 1.7425-0.7693 1.3582 0 2.4636 1.1793 2.4636 2.6282 0 1.4494-1.1054 2.6283-2.4636 2.6283-0.811 0-1.4683 0.7012-1.4683 1.5664v1.6778c0 0.8648 0.6573 1.5664 1.4683 1.5664 0.8106 0 1.4683-0.7016 1.4683-1.5664v-0.328c2.2663-0.6841 3.9315-2.9105 3.9315-5.5445 0-3.1769-2.4223-5.7611-5.4013-5.7611-1.4419 0-2.7978 0.59924-3.8176 1.6868-1.0194 1.0879-1.5811 2.5344-1.5811 4.0723v0.0016c0 0.8652 0.6573 1.5656 1.4683 1.5656s1.4683-0.7016 1.4683-1.5668z"/>
  <path d="m48.828 37.656h-22.594c-0.9709 0-1.7578 0.7873-1.7578 1.7578 0 0.9709 0.7869 1.7578 1.7578 1.7578h22.594c0.9704 0 1.7578-0.7869 1.7578-1.7578 0-0.9705-0.7874-1.7578-1.7578-1.7578z"/>
 </g>
</svg>
