<svg fill="none" version="1.1" viewBox="0 0 60 60" xmlns="http://www.w3.org/2000/svg">
 <g fill="#2D2D2D">
  <path d="m47.57 7.8611h-5.4281v-2.4284c0-0.78566-0.8571-1.1427-1.6427-1.1427h-4.2139c-0.9999-2.8569-3.4997-4.2854-6.3567-4.2854-2.8255-0.10622-5.3954 1.6263-6.3566 4.2854h-4.1426c-0.7856 0-1.5713 0.35708-1.5713 1.1427v2.4284h-5.4283c-3.2167 0.03431-5.8483 2.5719-5.9995 5.7852v40.925c0 3.1427 2.8569 5.4282 5.9995 5.4282h35.14c3.1426 0 5.9996-2.2855 5.9996-5.4282v-40.925c-0.1512-3.2135-2.7829-5.7511-5.9996-5.7854zm-26.855-0.71416h3.9283c0.6857-0.08367 1.2365-0.60535 1.3571-1.2856 0.423-1.842 2.039-3.1642 3.9283-3.214 1.8718 0.05674 3.4635 1.3831 3.8568 3.214 0.1281 0.70378 0.7153 1.2322 1.4285 1.2856h4.0712v5.7138h-18.57v-5.7138zm29.998 47.425c0 1.5713-1.5713 2.5712-3.1426 2.5712h-35.14c-1.5713 0-3.1426-0.9999-3.1426-2.5712v-40.925c0.14573-1.6356 1.5008-2.8984 3.1426-2.9283h5.4282v3.6426c0.0754 0.8003 0.7685 1.3989 1.5713 1.3571h21.07c0.8176 0.0447 1.5324-0.5458 1.6427-1.3571v-3.6428h5.4282c1.6417 0.0301 2.9969 1.2928 3.1426 2.9283v40.926h1e-4z"/>
  <path d="m24.5 31.931c-0.5358-0.5648-1.4252-0.5966-1.9999-0.0714l-4.5712 4.3568-1.9284-1.9999c-0.5357-0.5648-1.4252-0.5965-1.9999-0.0714-0.5532 0.5797-0.5532 1.4916 0 2.0713l2.9283 2.9998c0.2535 0.2838 0.6196 0.4407 0.9999 0.4285 0.3768-0.0053 0.7362-0.1594 0.9999-0.4285l5.571-5.2853c0.5523-0.5066 0.5892-1.3652 0.0824-1.9173-0.026-0.0289-0.0534-0.0564-0.0821-0.0826z"/>
  <path d="m44.999 35.002h-16.427c-0.7889 0-1.4284 0.6395-1.4284 1.4284 0 0.789 0.6395 1.4285 1.4284 1.4285h16.427c0.7889 0 1.4285-0.6395 1.4285-1.4285 0-0.7889-0.6396-1.4284-1.4285-1.4284z"/>
  <path d="m24.5 20.503c-0.5358-0.5648-1.4252-0.5966-1.9999-0.0714l-4.5712 4.3568-1.9284-2c-0.5357-0.5647-1.4252-0.5965-1.9999-0.0713-0.5532 0.5796-0.5532 1.4916 0 2.0713l2.9283 2.9997c0.2535 0.2839 0.6196 0.4408 0.9999 0.4286 0.3768-0.0053 0.7362-0.1594 0.9999-0.4286l5.571-5.2852c0.5523-0.5067 0.5892-1.3652 0.0824-1.9174-0.026-0.0288-0.0534-0.0563-0.0821-0.0825z"/>
  <path d="m44.999 23.574h-16.427c-0.7889 0-1.4284 0.6395-1.4284 1.4285 0 0.7889 0.6395 1.4284 1.4284 1.4284h16.427c0.7889 0 1.4285-0.6395 1.4285-1.4284 0-0.789-0.6396-1.4285-1.4285-1.4285z"/>
  <path d="m24.5 43.358c-0.5358-0.5648-1.4252-0.5965-1.9999-0.0714l-4.5712 4.3568-1.9284-1.9999c-0.5357-0.5648-1.4252-0.5965-1.9999-0.0714-0.5532 0.5796-0.5532 1.4916 0 2.0713l2.9283 2.9998c0.2535 0.2838 0.6196 0.4407 0.9999 0.4285 0.3768-0.0053 0.7362-0.1594 0.9999-0.4285l5.571-5.2853c0.5523-0.5067 0.5892-1.3652 0.0824-1.9174-0.026-0.0287-0.0534-0.0561-0.0821-0.0825z"/>
  <path d="m44.999 46.43h-16.427c-0.7889 0-1.4284 0.6395-1.4284 1.4285 0 0.7889 0.6395 1.4284 1.4284 1.4284h16.427c0.7889 0 1.4285-0.6395 1.4285-1.4284 0-0.789-0.6396-1.4285-1.4285-1.4285z"/>
 </g>
</svg>
