<svg fill="none" version="1.1" viewBox="0 0 60 60" xmlns="http://www.w3.org/2000/svg">
 <path d="m54.816 16.598c-0.2592-1.0161-0.9811-1.864-1.9271-2.2986l0.1682-0.3854c0.2242-0.5186 0.2313-1.0932 0.0139-1.6187-0.1541-0.3855-0.4135-0.7078-0.7428-0.9391l0.883-2.0954v-0.00698c0.6446-1.5487-0.0912-3.3498-1.6329-4.0084-1.5417-0.65875-3.3497 0.05612-4.0225 1.5907v0.01396l-0.8759 2.0603c-0.9391-0.16123-1.9061 0.33643-2.2986 1.2544l-15.158 35.347c-0.077 0.1752-0.1051 0.3644-0.0911 0.5537l0.3504 4.7792c-0.6797-0.918-1.3876-1.8431-2.2214-2.649-1.1143-1.0722-2.8382-2.4387-4.9194-1.9622-1.4927 0.3435-2.4947 1.6819-3.3848 2.8662-0.2803 0.3715-0.5467 0.7289-0.7919 0.9951-1.4717 1.6048-2.5509 1.4786-3.2447 1.2474-0.6096-0.2102-1.2333-0.5606-1.822-1.0161 0.946-0.6657 1.871-1.3595 2.7681-2.0954 0.8549-0.7007 1.8359-1.5697 2.6139-2.6699 0.5186-0.7358 1.1143-1.7239 1.1002-2.8592-7e-3 -1.1282-0.5396-2.2705-1.4155-3.0484-1.5907-1.4085-3.616-1.6818-5.6974-0.7778-2.2705 0.9811-3.8682 3.0764-4.1626 5.466-0.23131 1.8711 0.40651 3.9314 1.7519 5.6763-1.4927 0.9741-3.0133 1.9061-4.513 2.8171-0.46248 0.2803-0.60962 0.8829-0.32931 1.3454s0.88295 0.6096 1.3454 0.3293c1.6118-0.9811 3.2446-1.9761 4.8493-3.0344 0.89 0.7848 1.8782 1.3805 2.8732 1.7239 1.871 0.6377 3.6651 0.035 5.3259-1.78 0.3084-0.3364 0.6026-0.7288 0.911-1.1352 0.6868-0.911 1.4646-1.9482 2.2564-2.1304 0.89-0.2032 1.8501 0.2453 3.1115 1.4647 0.8479 0.8128 1.5628 1.7939 2.3265 2.8311 0.5396 0.7428 1.1073 1.5067 1.7239 2.2144 0.1963 0.2242 0.4625 0.3365 0.7358 0.3365 0.1892 0 0.3715-0.0561 0.5396-0.1613 0.1471-0.042 0.2872-0.119 0.4134-0.2172l6.0197-4.8984 7e-3 -7e-3c0.0281-0.0211 0.0561-0.049 0.0771-0.0701l0.0069-7e-3c0.0281-0.028 0.049-0.0561 0.0771-0.084 7e-3 -7e-3 0.014-0.014 0.014-0.0211 0.0139-0.0211 0.028-0.042 0.049-0.0631 0.0069-0.0139 0.0139-0.021 0.021-0.035 0.014-0.0211 0.0211-0.042 0.0351-0.0631 7e-3 -0.014 0.0139-0.0211 0.0211-0.035 0.0139-0.0281 0.028-0.0562 0.042-0.0841v-0.0139l14.128-33.14c0.3924 0.1963 0.6868 0.5606 0.7989 0.9881 0.1191 0.4555 0.014 0.946-0.2733 1.3175-7e-3 7e-3 -0.014 0.014-0.014 0.0211-7e-3 7e-3 -0.014 0.0139-0.0211 0.0211-1.7449 2.5227-2.782 4.8142-3.2516 7.211-0.1892 0.96-0.2943 1.9832-0.3364 3.2235-0.014 0.5396 0.4065 0.9951 0.946 1.0092h0.0351c0.5255 0 0.96-0.4205 0.981-0.9531 0.0351-1.1352 0.1332-2.0603 0.3014-2.9082 0.4135-2.1234 1.3526-4.1766 2.9363-6.4752 0.6307-0.8271 0.855-1.9342 0.5887-2.9575zm-44.576 27.989c0.2103-1.7029 1.3596-3.2025 2.9994-3.9104 0.4415-0.1891 0.9881-0.3503 1.5698-0.3503 0.6657 0 1.3734 0.2032 2.0533 0.8058 0.4625 0.4065 0.7498 1.0162 0.7569 1.5907 7e-3 0.5817-0.3924 1.2194-0.7428 1.7169-0.6447 0.9111-1.4997 1.6608-2.2565 2.2845-0.946 0.7709-1.9271 1.5067-2.9362 2.2075-1.1005-1.3734-1.6191-2.9501-1.4439-4.3447zm21.654 6.7344-0.2103-2.8662c0.7569 0.4695 1.5838 0.827 2.4458 1.0512l-2.2355 1.815zm4.1206-3.5038c-1.6399-0.0841-3.2025-0.7498-4.3938-1.8782l9.6006-22.39 4.3378 1.857-9.5446 22.411zm10.315-24.205-4.3378-1.857 4.4639-10.406 4.3028 1.871-4.4289 10.392zm4.6882-15.277-0.8479 2.0183-1.2824-0.56061 0.8548-2.0112c0.1472-0.34341 0.5537-0.50451 0.9041-0.35039 0.3504 0.147 0.5116 0.5535 0.3714 0.90389z" fill="#2D2D2D"/>
</svg>
