<svg fill="none" version="1.1" viewBox="0 0 60 60" xmlns="http://www.w3.org/2000/svg">
 <g clip-path="url(#clip0_22_68)" fill="#2D2D2D">
  <path d="m28.269 44.401c-0.4513-0.3312-1.0864-0.2345-1.418 0.217l-0.1253 0.1705c-0.3313 0.4512-0.2348 1.0853 0.2159 1.4173 0.181 0.1335 0.392 0.1979 0.6009 0.1979 0.3109 0 0.6178-0.1425 0.8166-0.4118l0.1271-0.1728c0.3316-0.4516 0.2343-1.0865-0.2172-1.4181z"/>
  <path d="m28.534 54.052-2.609-4.744 2.4359-3.3176c0.3318-0.4515 0.2344-1.0864-0.2173-1.418-0.4515-0.3318-1.0864-0.2344-1.4179 0.2173l-2.8194 3.8397c-0.2337 0.3183-0.2614 0.7432-0.0712 1.0893l2.9213 5.311v-1e-4c0.1848 0.3358 0.5318 0.5257 0.8898 0.5257 0.1653-1e-4 0.3329-0.0405 0.4879-0.1257 0.4908-0.2699 0.6699-0.8867 0.3999-1.3776z"/>
  <path d="m36.094 48.629-2.8078-3.8241c-0.2329-0.317-0.6274-0.4711-1.0135-0.3947-0.3859 0.0758-0.693 0.3681-0.7884 0.7496-0.0732 0.2929-0.0122 0.603 0.1665 0.8464l2.4239 3.3014-2.5911 4.7118c-0.0823 0.1497-0.1255 0.3184-0.1255 0.4894 0 0.463 0.3136 0.8673 0.7621 0.9825 0.084 0.0217 0.1687 0.0321 0.2524 0.0321 0.3632 0 0.7073-0.1959 0.8889-0.5256l2.9036-5.2793c0.1905-0.3463 0.1626-0.7712-0.0711-1.0895z"/>
  <path d="m37.702 32.687c-0.3337-0.1752-0.737-0.1512-1.0474 0.0627-0.6034 0.4157-1.1634 0.8561-1.6642 1.3088-2.73 2.468-5.3238 2.134-5.4254 2.1195-0.0611-0.0097-0.1234-0.0141-0.1849-0.0121-1.0789 0.0276-3.0242-0.9583-5.0822-2.5745-0.3147-0.2472-0.6375-0.4827-0.9597-0.7002-0.3108-0.21-0.7124-0.2312-1.0436-0.0551-0.3313 0.176-0.5384 0.5206-0.5384 0.8958v3.48c0 0.3077 0.1401 0.5986 0.3801 0.7913 0.0283 0.0228 0.0579 0.0439 0.0883 0.0634l7.1931 4.8065c0.0012 7e-4 0.0023 0.0017 0.0034 0.0025l0.019 0.0127c0.1694 0.112 0.3645 0.1686 0.5603 0.1686 0.1648 0 0.3295-0.04 0.4801-0.1205 0.0318-0.017 0.0622-0.0356 0.0915-0.0555 0.0034-0.0022 0.0068-0.0045 0.0104-0.0068 0.0039-0.0026 0.0079-0.0053 0.0119-8e-3l7.1761-4.7952c0.0288-0.0183 0.057-0.038 0.084-0.0591 0.2463-0.1922 0.3902-0.4871 0.3902-0.7995v-3.6271c0-0.3771-0.2089-0.7227-0.5426-0.8982zm-1.4864 3.9823-6.2153 4.1532-6.2152-4.1533v-0.9226c1.5134 1.0998 3.7396 2.4487 5.5542 2.4486h0.0119c0.6092 0.0674 3.7162 0.2506 6.8646-2.5113v0.9854h-2e-4z"/>
  <path d="m31.001 41.876c-0.0669-0.4023-0.3684-0.7254-0.7652-0.8201-0.3971-0.0941-0.8117 0.0576-1.0531 0.3865l-2.3317 3.1759c-0.3316 0.4516-0.2343 1.0865 0.2174 1.418 0.1808 0.1329 0.3911 0.1969 0.5995 0.1969 0.312 0 0.6197-0.1435 0.8187-0.4144l2.3195-3.1591c0.132-0.1725 0.2088-0.3872 0.2088-0.6166-1e-4 -0.0558-0.0048-0.1121-0.0139-0.1671z"/>
  <path d="m45.455 9.1725c-0.0201-0.1589-0.4953-3.5885-3.7236-4.9414 0.0937-0.60235 0.0839-1.3765-0.2985-2.1297-0.514-1.0123-1.5282-1.6719-3.0148-1.9609-0.0637-0.012422-0.1284-0.018633-0.1934-0.018633h-13.616c-5.5287 0-10.027 4.4979-10.027 10.027v5.3428c0 1.3919 0.4744 2.7493 1.3358 3.8218 0.427 0.5318 0.9529 1.4605 1.0323 2.8647 0.0309 0.5482 0.4898 0.9718 1.0414 0.9566 0.5489-0.0155 0.9858-0.465 0.9858-1.0141v-6.9656c0.6888-2.8487 3.0397-3.4031 3.4439-3.478h4.4042c0.5181 0 1.0275-0.0791 1.5144-0.2352 0.8374-0.2686 2.166-0.7629 3.1333-1.1303 0.6471-0.246 1.3635-0.255 2.0171-0.0253l4.7149 1.6552c2.3572 0.8695 2.7779 2.9388 2.83 3.2639v8.3598c0 0.531 0.4093 0.9715 0.9388 1.011 0.0258 0.0018 0.0511 0.0029 0.0764 0.0029 0.4976-1e-4 0.9272-0.3647 1.0025-0.8643 4e-3 -0.0261 0.409-2.6425 1.7152-4.7374 0.4545-0.7293 0.6948-1.5607 0.6948-2.4045v-7.272c0-0.04278-0.0027-0.08555-0.0081-0.12809zm-2.0209 7.3997c0 0.4531-0.1278 0.9027-0.3699 1.3024v-2.7389c0-0.0367-2e-3 -0.0731-6e-3 -0.1096-0.016-0.1473-0.4351-3.6238-4.16-4.9921-0.0045-0.0016-0.0091-0.0032-0.0137-0.0049l-4.722-1.6577c-0.5324-0.18692-1.0894-0.2802-1.6461-0.2802-0.5986 0-1.1968 0.10793-1.7636 0.32356-1.3543 0.51445-2.403 0.89308-3.0324 1.0949-0.2863 0.09176-0.5873 0.1384-0.8948 0.1384h-4.4861c-0.0435 0-0.0871 0.00281-0.1303 0.00832-0.1717 0.02227-4.2178 0.59766-5.2361 5.1616-0.0162 0.0725-0.0244 0.1466-0.0244 0.2209v2.0878c-0.2209-0.5105-0.3378-1.0681-0.3378-1.6351v-5.3426c0-4.41 3.5879-7.998 7.9978-7.998h13.514c0.5595 0.11918 1.2394 0.36375 1.4973 0.86133 0.3159 0.60903-0.0439 1.4476-0.0443 1.4483-0.1297 0.27597-0.1282 0.59554 0.0037 0.87035 0.1319 0.2748 0.3806 0.47566 0.6771 0.54703 2.5826 0.62168 3.1093 3.0987 3.178 3.4994v7.1949h1e-4z"/>
  <path d="m43.058 15.026c-0.0159-0.1473-0.4351-3.6238-4.1599-4.9921-0.0045-0.0016-0.0091-0.0033-0.0137-0.0049l-4.7221-1.6578c-1.105-0.3879-2.3158-0.37243-3.4098 0.04312-1.3542 0.51446-2.4029 0.89309-3.0323 1.095-0.2863 0.09176-0.5874 0.13828-0.8949 0.13828h-4.486c-0.0435 0-0.0871 0.00282-0.1304 0.00832-0.1716 0.02227-4.2178 0.59764-5.236 5.1615-0.0162 0.0725-0.0244 0.1466-0.0244 0.2209v8.7206c0 0.0075 1e-4 0.015 2e-4 0.0225 0.0067 0.303 0.2211 7.4569 5.164 10.729l0.0256 0.018c0.0212 0.015 0.0424 0.03 0.0646 0.0449 0.2818 0.1903 0.5648 0.3969 0.8416 0.6142 1.44 1.1307 4.1537 3.0082 6.2945 3.0082h0.0118c0.1163 0.0128 0.3238 0.0299 0.6053 0.0299 1.2133 0 3.8017-0.3179 6.3944-2.6617 0.4351-0.3932 0.9243-0.7778 1.4547-1.1432l0.0759-0.0531c0.0247-0.0174 0.0494-0.035 0.0749-0.0521 1.6489-1.1074 4.5045-3.9649 5.104-10.66 0.0027-0.03 0.0041-0.0604 0.0041-0.0906v-8.4289c-1e-4 -0.0365-0.0022-0.073-0.0061-0.1095zm-2.023 8.4926c-0.5527 6.0424-3.1272 8.3849-4.2103 9.1122-0.0384 0.0259-0.0764 0.0527-0.1144 0.0794l-0.0562 0.0396c-0.6034 0.4157-1.1633 0.856-1.6642 1.3087-2.7198 2.4589-5.3051 2.1364-5.4319 2.1186-0.0589-0.0088-0.1187-0.0126-0.1783-0.0109-1.079 0.0276-3.0243-0.9583-5.0822-2.5745-0.3148-0.2473-0.6375-0.4828-0.9593-0.7l-0.025-0.0176c-0.0244-0.0173-0.0486-0.0345-0.0772-0.0535-3.9889-2.6402-4.2498-8.8184-4.2586-9.0762v-8.5899c0.6913-2.8591 3.0567-3.4072 3.4423-3.478h4.4057c0.5181 0 1.0275-0.0791 1.5145-0.2352 0.8374-0.2686 2.1661-0.7629 3.1332-1.1303 0.6471-0.2459 1.3636-0.255 2.0172-0.0253l4.7149 1.6552c2.3571 0.8695 2.7778 2.9388 2.83 3.2639v8.3138h-2e-4z"/>
  <path d="m30.907 41.59c-0.158-0.3162-0.4693-0.5273-0.8214-0.5573-0.3516-0.029-0.6945 0.1255-0.9037 0.4105l-2.43 3.3097c-0.3313 0.4514-0.2345 1.0858 0.2166 1.4176 0.1809 0.1331 0.3915 0.1974 0.6002 0.1974 0.3113 0 0.6185-0.1428 0.8174-0.4127l2.4301-3.2974c0.1286-0.1744 0.1979-0.3973 0.1979-0.6139 2e-4 -0.1573-0.0367-0.313-0.1071-0.4539z"/>
  <path d="m30.972 57.923c-0.3811-0.3986-1.0108-0.4198-1.4176-0.0475l-0.232 0.2121c-0.3472 0.3175-0.4305 0.8322-0.2011 1.2431l0.0072 0.0127c0.1549 0.2777 0.4312 0.4666 0.7461 0.5103 0.0467 0.0064 0.0933 0.0096 0.1397 0.0096 0.2671 0 0.5257-0.1056 0.7173-0.2972l0.2247-0.2249c0.3899-0.3899 0.3969-1.0199 0.0157-1.4182z"/>
  <path d="m30.677 58.088-0.2319-0.2121c-0.4069-0.3722-1.0367-0.351-1.4178 0.0475-0.3812 0.3986-0.3741 1.0287 0.0159 1.4185l0.225 0.2249c0.1916 0.1916 0.4501 0.2971 0.7171 0.2971 0.0477 0 0.0957-0.0033 0.1436-0.0102 0.3159-0.0452 0.5923-0.2365 0.7459-0.5164l0.0072-0.0127c0.2247-0.4102 0.1401-0.921-0.205-1.2366z"/>
  <path d="m30.694 58.104-0.0013-0.0012c-0.1567-0.1465-0.3593-0.243-0.5825-0.2675-0.299-0.0326-0.5902 0.0686-0.8019 0.2659l-0.0031 0.0028c-0.2051 0.187-0.3245 0.4501-0.3305 0.7276-0.0059 0.2777 0.1021 0.5455 0.2989 0.7412l0.0106 0.0107c0.198 0.1967 0.4566 0.2951 0.7153 0.2951 0.2597 0 0.5193-0.0992 0.7172-0.297l0.0107-0.0107c0.1959-0.196 0.3033-0.4636 0.2968-0.7406-0.0061-0.2771-0.1255-0.5395-0.3302-0.7263z"/>
  <path d="m30.329 41.061c-0.4201-0.1345-0.8811 0.0214-1.137 0.3812-0.2861 0.4029-0.2389 0.9519 0.1097 1.3022 0.1962 0.1971 0.4566 0.2981 0.719 0.2981 0.2038 0 0.4086-0.0609 0.5853-0.1854 0.27-0.1899 0.4307-0.4993 0.4307-0.8295v-0.0025c0-0.4415-0.2871-0.8299-0.7077-0.9641z"/>
  <path d="m30.824 41.434-0.0087-0.0117c-0.2603-0.3523-0.7173-0.4974-1.1332-0.3604s-0.6969 0.5256-0.6969 0.9634v0.0174c0 0.3734 0.2096 0.7139 0.5387 0.8906 0.1491 0.08 0.3136 0.1195 0.4779 0.1195 0.1982 0 0.3961-0.0574 0.5662-0.1701 0.232-0.1536 0.3907-0.3957 0.4391-0.6695s-0.0178-0.5556-0.1831-0.7792z"/>
  <path d="m42.068 38.247c-0.1051-0.2779-0.3268-0.4956-0.6064-0.5957l-3.8895-1.3943c-0.0316-0.0112-0.0643-0.0213-0.0968-0.0293-0.2777-0.0695-0.5718-0.0185-0.8097 0.1406l-7.2068 4.8158c-0.0019 0.0012-4e-3 0.0025-6e-3 0.0039l0.5659 0.8415-0.5785-0.8329c-0.2114 0.1398-0.3629 0.3541-0.4243 0.6-0.0337 0.135-0.0392 0.276-0.0164 0.4132 0.0262 0.1568 0.0887 0.3054 0.183 0.4337l5.2763 7.1861c0.1918 0.2613 0.496 0.4141 0.8175 0.4141 0.0221 0 0.0442-8e-4 0.0664-0.0023 0.3456-0.0228 0.6558-0.2199 0.8226-0.5235l5.8427-10.623c0.1433-0.2604 0.1652-0.5705 0.06-0.8481zm-6.9145 9.1007-3.7084-5.0508 5.9229-3.9578 2.2891 0.8207-4.5036 8.1879z"/>
  <path d="m31 41.868c-0.0477-0.2724-0.2044-0.5134-0.434-0.6675l-7.2309-4.8318c-0.2301-0.154-0.5138-0.2067-0.7842-0.1467-0.0415 0.0091-0.0823 0.0211-0.1222 0.0354l-3.8896 1.3943c-0.2796 0.1002-0.5012 0.3179-0.6063 0.5956-0.1051 0.2779-0.0833 0.5877 0.0599 0.8481l5.8426 10.623c0.1669 0.3035 0.4771 0.5007 0.8226 0.5235 0.0221 0.0014 0.0442 0.0021 0.0663 0.0021 0.3215 0 0.6256-0.1529 0.8177-0.4143l2.8193-3.8397c0.0022-0.0029 0.0044-0.0061 0.0067-0.0092l2.4505-3.3377c0.1636-0.2228 0.2292-0.5027 0.1816-0.775zm-4.274 2.9208c-0.0025 0.0032-0.0049 0.0065-0.0073 0.0098l-1.8719 2.5494-4.5035-8.188 2.2892-0.8206 5.9228 3.9578-1.8293 2.4916z"/>
  <path d="m59.95 55.565-1.3086-7.9023c-0.4124-2.4904-2.1431-4.5711-4.5169-5.4296l-12.66-4.5804c-0.3904-0.1411-0.8267-0.0305-1.1026 0.2792-0.2758 0.3097-0.3355 0.7562-0.1503 1.1275l2.6433 5.3009-2.5937 0.04c-0.3522 0.0055-0.6764 0.193-0.8563 0.4958-0.18 0.3028-0.1901 0.6771-0.0267 0.9892l1.0638 2.0312-10.887 9.9594c-0.0111 0.0102-0.022 0.0205-0.0327 0.0312l-0.2248 0.2248c-0.3184 0.3185-0.3888 0.8088-0.1726 1.2039l8e-3 0.0145c0.178 0.3252 0.5192 0.5275 0.89 0.5275h26.27c1.0914 0 2.1219-0.4773 2.8275-1.3095 0.7057-0.8323 1.0082-1.9271 0.8298-3.0033zm-2.3769 1.6911c-0.3197 0.3769-0.7863 0.593-1.2803 0.593h-23.703l9.7982-8.963c0.3399-0.3107 0.4278-0.8112 0.214-1.2191l-0.6619-1.2636 2.5578-0.0394c0.3486-0.0053 0.6698-0.1894 0.8511-0.4872 0.1811-0.298 0.1966-0.6678 0.0411-0.9799l-2.2309-4.4737 10.276 3.7175c1.6845 0.6094 2.9128 2.0859 3.2054 3.8532l1.3086 7.9024v1e-4c0.0807 0.4874-0.0562 0.9828-0.3758 1.3597z"/>
  <path d="m30.703 58.112-0.0119-0.0106c-0.4015-0.3636-1.0181-0.3474-1.4001 0.0367l-0.0106 0.0107c-0.2888 0.2906-0.3745 0.7266-0.2172 1.1049 0.1573 0.3784 0.5269 0.6248 0.9366 0.6248h0.0223c0.4194 0 0.7957-0.2583 0.9464-0.6496 0.1511-0.3915 0.0455-0.8354-0.2655-1.1169z"/>
  <path d="m30.671 58.082c-0.2302-0.2073-0.5425-0.2981-0.8484-0.2459-0.3055 0.0516-0.5706 0.2404-0.7197 0.5121l-7e-3 0.0127c-0.2139 0.3899-0.1488 0.8737 0.1604 1.1934l0.0037 0.0037c0.1987 0.2054 0.4636 0.309 0.7291 0.309 0.2444 0 0.4894-0.0879 0.6835-0.2652l0.0106-0.0096c0.0921-0.0839 0.1681-0.1844 0.2238-0.296 0.2043-0.4082 0.1033-0.909-0.236-1.2142z"/>
  <path d="m30.715 58.144-0.0042-0.0043c-0.0027-0.0027-0.0055-0.0056-0.0081-0.0081l-0.225-0.2248c-0.0106-0.0107-0.0215-0.0211-0.0325-0.0311l-10.887-9.9594 1.064-2.0312c0.1634-0.312 0.1532-0.6864-0.0266-0.9892-0.18-0.3027-0.5042-0.4903-0.8563-0.4958l-2.594-0.04 2.6433-5.3008c0.1852-0.3713 0.1254-0.8179-0.1503-1.1276-0.2758-0.3097-0.7127-0.4205-1.1026-0.2792l-12.66 4.5804c-2.3738 0.8584-4.1046 2.9391-4.517 5.4296l-1.3086 7.9023c-0.17824 1.0767 0.12434 2.1713 0.83004 3.0034 0.70583 0.8322 1.7365 1.3095 2.8275 1.3095h26.292c0.4109 0 0.7811-0.2479 0.9376-0.6276 0.1567-0.3797 0.0688-0.8165-0.2225-1.1061zm-27.007-0.2951c-0.49407 0-0.96071-0.2161-1.2802-0.593-0.31946-0.3767-0.45633-0.8723-0.37571-1.3598l1.3086-7.9023c0.29262-1.7676 1.5209-3.2439 3.2054-3.8533l10.276-3.7175-2.2307 4.4735c-0.1557 0.3121-0.1402 0.6819 0.0411 0.9799 0.181 0.2979 0.5025 0.4819 0.8511 0.4872l2.5578 0.0395-0.6619 1.2636c-0.2136 0.4078-0.1258 0.9084 0.2139 1.2191l9.7981 8.9631h-23.703z"/>
  <path d="m33.453 45.651c0.0732-0.2929 0.0121-0.6031-0.1666-0.8465l-2.4686-3.362c-0.2595-0.3535-0.717-0.494-1.1335-0.3573-0.2249 0.0737-0.4101 0.2225-0.5334 0.4127l-2.4236 3.2884c-0.0347 0.0469-0.0655 0.0973-0.0916 0.1495-0.1661 0.3323-0.1374 0.7286 0.0747 1.0334l1.0321 1.4821-1.0994 6.9301c-0.0353 0.2225 0.0045 0.4504 0.1131 0.6478l2.3552 4.2822c0.1782 0.3242 0.519 0.5256 0.8889 0.5256s0.7106-0.2014 0.8888-0.5256l2.3728-4.3139c0.0823-0.1498 0.1256-0.318 0.1256-0.4888v-6e-4c0-0.0532-0.0044-0.1064-0.0126-0.159l-1.0944-6.8977 1.0209-1.4658c0.0701-0.1015 0.1218-0.215 0.1516-0.3346zm-3.4527 11.067-1.2991-2.3617 1.1091-6.9902c0.0411-0.2589-0.0197-0.5236-0.1695-0.7386l-0.85-1.2209 1.2124-1.645 1.2187 1.6598-0.8398 1.2061c-0.1498 0.2149-0.2105 0.4797-0.1695 0.7386l1.104 6.9583-1.3163 2.3936z"/>
 </g>
 <defs>
  <clipPath id="clip0_22_68">
   <rect width="60" height="60" fill="#fff"/>
  </clipPath>
 </defs>
</svg>
