<svg width="182" height="363" viewBox="0 0 182 363" fill="none" xmlns="http://www.w3.org/2000/svg">
<path d="M361.011 181.5L181.5 361.011L1.98859 181.5L181.5 1.98859L361.011 181.5ZM309.841 53.1589C238.963 -17.7196 124.037 -17.7196 53.1589 53.1589C-17.7196 124.037 -17.7196 238.963 53.1589 309.841C124.037 380.72 238.963 380.72 309.841 309.841C380.72 238.963 380.72 124.037 309.841 53.1589Z" fill="#414953"/>
<mask id="mask0_105_2008" style="mask-type:alpha" maskUnits="userSpaceOnUse" x="0" y="0" width="363" height="363">
<path d="M361.011 181.5L181.5 361.011L1.98859 181.5L181.5 1.98859L361.011 181.5ZM309.841 53.1589C238.963 -17.7196 124.037 -17.7196 53.1589 53.1589C-17.7196 124.037 -17.7196 238.963 53.1589 309.841C124.037 380.72 238.963 380.72 309.841 309.841C380.72 238.963 380.72 124.037 309.841 53.1589Z" fill="#414953"/>
</mask>
<g mask="url(#mask0_105_2008)">
<path d="M-65.5 216.5L55.9541 154L183 352.5L157.5 476L-65.5 216.5Z" fill="#65C19C"/>
</g>
</svg>
