<svg width="290" height="50" viewBox="0 0 290 50" fill="none" xmlns="http://www.w3.org/2000/svg">
<path d="M239.661 1H231.646V47.9189H239.661V1Z" stroke="#E1E1E1"/>
<path d="M209.552 1H201.537V47.9189H209.552V1Z" stroke="#E1E1E1"/>
<path d="M88.463 47.7027L75.2494 1H66.5847L73.7331 26.2973H59.2198L66.5847 1H58.5699L44.9231 47.7027H52.9379L57.0536 33.6487H75.8992L79.7984 47.7027H88.463Z" stroke="#E1E1E1"/>
<path d="M153.665 1V28.6757C153.665 34.5135 155.181 39.9189 158.863 43.5946C161.896 46.8378 166.445 49 172.727 49C179.009 49 183.558 47.0541 186.59 43.5946C190.056 39.7027 191.789 34.2973 191.789 28.6757V1H182.258V29.3243C182.258 31.2703 182.041 33.8649 180.742 36.2433C179.442 38.6216 177.059 40.3514 172.727 40.3514C168.394 40.3514 166.012 38.6216 164.712 36.2433C163.412 34.0811 163.196 31.2703 163.196 29.3243V1H153.665Z" stroke="#E1E1E1"/>
<path d="M102.327 1H94.3118V47.9189H102.327V1Z" stroke="#E1E1E1"/>
<path d="M143.7 1H135.036V47.9189H143.7V1Z" stroke="#E1E1E1"/>
<path d="M119.656 47.7027H127.021L135.036 1H127.671L119.656 47.7027Z" stroke="#E1E1E1"/>
<path d="M110.991 1H102.327L110.775 47.7027H119.656L110.991 1Z" stroke="#E1E1E1"/>
<path d="M39.291 1H31.2761V47.9189H39.291V1Z" stroke="#E1E1E1"/>
<path d="M9.18146 1H1.16663V47.9189H9.18146V1Z" stroke="#E1E1E1"/>
<path d="M18.0626 1H9.39795L22.6116 47.7027H31.2762L18.0626 1Z" stroke="#E1E1E1"/>
<path d="M288.833 47.7027L275.403 1H266.739L274.103 26.2973H259.374L266.739 1H258.724L245.293 47.7027H253.308L257.207 33.6487H276.053L280.169 47.7027H288.833Z" stroke="#E1E1E1"/>
<path d="M218.216 1H209.552L222.765 47.7027H231.647L218.216 1Z" stroke="#E1E1E1"/>
</svg>
