<svg width="186" height="48" viewBox="0 0 186 48" fill="none" xmlns="http://www.w3.org/2000/svg">
<path d="M92.9001 28.2L86.8 6.60001H82.8L86.1 18.3H79.4001L82.8 6.60001H79.1L72.8 28.2H76.5001L78.4001 21.7H87.1L88.9001 28.2H92.9001Z" fill="#414953"/>
<path d="M123 6.60001V19.4C123 22.1 123.7 24.6 125.4 26.3C126.8 27.8 128.9 28.8 131.8 28.8C134.7 28.8 136.8 27.9 138.2 26.3C139.8 24.5 140.6 22 140.6 19.4V6.60001H136.2V19.7C136.2 20.6 136.1 21.8 135.5 22.9C134.9 24 133.8 24.8 131.8 24.8C129.8 24.8 128.7 24 128.1 22.9C127.5 21.9 127.4 20.6 127.4 19.7V6.60001H123Z" fill="#414953"/>
<path d="M99.3001 6.60001H95.6001V28.3H99.3001V6.60001Z" fill="#414953"/>
<path d="M118.4 6.60001H114.4V28.3H118.4V6.60001Z" fill="#414953"/>
<path d="M107.3 28.2H110.7L114.4 6.60001H111L107.3 28.2Z" fill="#414953"/>
<path d="M103.3 6.60001H99.3L103.2 28.2H107.3L103.3 6.60001Z" fill="#414953"/>
<path d="M70.2 6.60001H66.5V28.3H70.2V6.60001Z" fill="#414953"/>
<path d="M56.3001 6.60001H52.6001V28.3H56.3001V6.60001Z" fill="#414953"/>
<path d="M60.4 6.60001H56.4L62.5 28.2H66.5L60.4 6.60001Z" fill="#414953"/>
<path d="M185.4 28.2L179.2 6.60001H175.2L178.6 18.3H171.8L175.2 6.60001H171.5L165.3 28.2H169L170.8 21.7H179.5L181.4 28.2H185.4Z" fill="#414953"/>
<path d="M152.8 6.60001H148.8L154.9 28.2H159L152.8 6.60001Z" fill="#414953"/>
<path d="M162.7 6.60001H159V28.3H162.7V6.60001Z" fill="#414953"/>
<path d="M148.8 6.60001H145.1V28.3H148.8V6.60001Z" fill="#414953"/>
<path d="M138.6 42.4C138.6 43.5 139.3 44.2 140.5 44.2H142.1V42.6H140.9C140.6 42.6 140.4 42.4 140.4 42.1V38.5H142.1V36.7H140.4V34.6H138.6V36.7H137.4V38.5H138.6V42.4ZM87.5 44.2H89.3V33.9H87.5V44.2ZM129.7 44.2H131.5V39.9C131.5 39 132.2 38.3 133.1 38.3C134.1 38.3 134.7 39 134.7 39.9V44.2H136.5V39.7C136.5 37.8 135.3 36.5 133.6 36.5C132.9 36.5 132.4 36.7 132 36.9C131.8 37 131.6 37.2 131.5 37.3H131.4L131.2 36.6H129.5V44.2H129.7ZM126.2 42C126 42.3 125.5 42.8 124.7 42.8C123.7 42.8 122.9 42.1 122.7 41H128.3V40.8C128.3 40.7 128.3 40.5 128.3 40.3C128.3 38.2 126.7 36.6 124.6 36.6C122.4 36.6 120.8 38.2 120.8 40.5C120.8 42.8 122.4 44.4 124.6 44.4C127 44.4 127.9 42.6 128.1 42.1H126.2V42ZM122.7 39.8C122.9 38.8 123.6 38.1 124.7 38.1C125.7 38.1 126.4 38.8 126.5 39.8H122.7ZM108.7 44.2H110.5V39.7C110.5 38.9 111.1 38.2 111.9 38.2C112.6 38.2 113.1 38.7 113.1 39.7V44.2H114.9V39.7C114.9 38.9 115.5 38.2 116.3 38.2C117 38.2 117.6 38.7 117.6 39.7V44.2H119.4V39.6C119.4 37.9 118.2 36.6 116.6 36.6C115.8 36.6 115.3 36.9 114.9 37.1C114.7 37.3 114.5 37.4 114.4 37.6H114.3C114.2 37.4 114 37.2 113.8 37.1C113.5 36.9 113 36.6 112.2 36.6C111.6 36.6 111.2 36.8 110.9 37C110.7 37.1 110.6 37.3 110.5 37.4H110.4L110.3 36.7H108.6V44.2H108.7ZM99.8 47.2H101.6V43.5H101.7C101.8 43.7 102 43.8 102.2 43.9C102.5 44.1 103.1 44.3 103.8 44.3C105.7 44.3 107.3 42.8 107.3 40.4C107.3 38 105.7 36.5 103.8 36.5C103.1 36.5 102.5 36.8 102.2 37C102 37.1 101.8 37.3 101.7 37.5H101.6L101.4 36.7H99.7V47.2H99.8ZM105.5 40.5C105.5 41.9 104.7 42.7 103.6 42.7C102.5 42.7 101.7 41.9 101.7 40.5C101.7 39.1 102.5 38.3 103.6 38.3C104.7 38.3 105.5 39 105.5 40.5ZM94.6 36.6C92.4 36.6 90.8 38.2 90.8 40.5C90.8 42.8 92.4 44.4 94.6 44.4C96.8 44.4 98.4 42.8 98.4 40.5C98.4 38.2 96.8 36.6 94.6 36.6ZM94.6 42.7C93.5 42.7 92.6 41.8 92.6 40.5C92.6 39.2 93.5 38.3 94.6 38.3C95.7 38.3 96.6 39.2 96.6 40.5C96.6 41.8 95.7 42.7 94.6 42.7ZM83.9 42C83.7 42.3 83.2 42.8 82.4 42.8C81.3 42.8 80.6 42.1 80.4 41H86V40.8C86 40.7 86 40.5 86 40.3C86 38.2 84.4 36.6 82.3 36.6C80.1 36.6 78.5 38.2 78.5 40.5C78.5 42.8 80.1 44.4 82.3 44.4C84.7 44.4 85.6 42.6 85.7 42.1H83.9V42ZM80.4 39.8C80.6 38.8 81.3 38.1 82.4 38.1C83.4 38.1 84.1 38.8 84.2 39.8H80.4ZM73.2 44.2H75.7L78.3 36.7H76.3L74.5 41.9H74.3L72.5 36.7H70.6L73.2 44.2ZM68.2 42C68 42.3 67.5 42.8 66.7 42.8C65.6 42.8 64.9 42.1 64.7 41H70.3V40.8C70.3 40.7 70.3 40.5 70.3 40.3C70.3 38.2 68.7 36.6 66.6 36.6C64.4 36.6 62.8 38.2 62.8 40.5C62.8 42.8 64.4 44.4 66.6 44.4C69 44.4 69.9 42.6 70.1 42.1H68.2V42ZM64.6 39.8C64.8 38.8 65.5 38.1 66.6 38.1C67.6 38.1 68.3 38.8 68.4 39.8H64.6ZM54.9 42.4V35.8H56.7C58.5 35.8 59.8 37.1 59.8 39.1C59.8 41.1 58.5 42.4 56.7 42.4H54.9ZM52.9 44.2H56.6C59.4 44.2 61.6 42 61.6 39.1C61.6 36.2 59.4 34 56.6 34H52.9V44.2Z" fill="#414953"/>
<path d="M37.6001 37.5H6.6001V6.5H37.6001V37.5ZM44.3001 22.1C44.3001 9.9 34.4001 0 22.2001 0C10.0001 0 0.100098 9.9 0.100098 22.1C0.100098 34.3 10.0001 44.2 22.2001 44.2C34.4001 44.2 44.3001 34.3 44.3001 22.1Z" fill="#65C19C"/>
</svg>
