<svg width="699" height="263" viewBox="0 0 699 263" fill="none" xmlns="http://www.w3.org/2000/svg">
<mask id="mask0_26_189" style="mask-type:alpha" maskUnits="userSpaceOnUse" x="0" y="0" width="699" height="257">
<path fill-rule="evenodd" clip-rule="evenodd" d="M562.168 15.1149H0V0H562.168C579.051 0 594.436 7.55748 605.464 19.9517C616.492 32.1948 623.436 49.2746 623.436 68.0171C623.436 86.7596 616.629 103.84 605.464 116.083C594.436 128.326 579.051 136.034 562.168 136.034V135.883H88.3621C75.1554 135.883 63.3103 141.778 54.7328 151.3C46.1553 160.823 40.8453 174.124 40.8453 188.634C40.8453 203.145 46.1553 216.446 54.7328 225.968C63.3103 235.49 75.2916 241.385 88.3621 241.385V241.234H699V256.349H88.226V256.5C71.3432 256.5 55.9581 248.943 44.9299 236.549C33.9016 224.305 26.958 207.226 26.958 188.483C26.958 169.741 33.7655 152.661 44.9299 140.418C56.0943 128.175 71.3432 120.466 88.226 120.466H562.032V120.617C575.239 120.617 587.084 114.722 595.661 105.2C604.239 95.6774 609.549 82.3763 609.549 67.866C609.549 53.3557 604.239 40.0546 595.661 30.5322C587.22 21.0098 575.239 15.1149 562.168 15.1149Z" fill="#070707"/>
</mask>
<g mask="url(#mask0_26_189)">
<path d="M632 0H19.0612V124.5V262.5H632V0Z" fill="url(#paint0_linear_26_189)"/>
</g>
<defs>
<linearGradient id="paint0_linear_26_189" x1="19.0238" y1="169.696" x2="853.513" y2="169.696" gradientUnits="userSpaceOnUse">
<stop stop-color="white"/>
<stop offset="1" stop-color="#313A45"/>
</linearGradient>
</defs>
</svg>
