<svg width="67" height="136" viewBox="0 0 67 136" fill="none" xmlns="http://www.w3.org/2000/svg">
<path d="M66.9997 67.7509C66.9997 105.169 36.3985 136 0.499972 136C0.499919 68.7473 0.499946 106.165 0.499946 68.7473C0.499946 31.3295 0.5 69.2454 0.5 0C36.3985 0 66.9997 30.3331 66.9997 67.7509Z" fill="#787E85"/>
<path d="M50.5 67.7509C50.5 96.9148 28.4427 120.059 4.76991e-07 120.059C4.76991e-07 66.7546 4.76991e-07 95.9185 4.76991e-07 66.7546C-2.81632e-05 37.5907 -1.75981e-05 66.7546 0.000168786 14.9451C28.4428 14.9451 50.5 38.5871 50.5 67.7509Z" fill="#414953"/>
</svg>
